<svg width="106" height="62" viewBox="0 0 106 62" fill="none" xmlns="http://www.w3.org/2000/svg">
<path d="M34.2931 41.6104C33.0998 42.8484 31.209 42.8865 29.5017 41.1152C27.7944 39.3439 28.0881 35.1728 28.0881 35.1728C28.0881 35.1728 32.1085 34.8681 33.8158 36.6394C35.5231 38.4107 35.4864 40.3724 34.2931 41.6104Z" fill="white"/>
<path d="M24.9862 41.1152C23.2789 42.8865 21.388 42.8484 20.1947 41.6104C19.0014 40.3724 18.9647 38.4107 20.672 36.6394C22.3793 34.8681 26.3997 35.1728 26.3997 35.1728C26.3997 35.1728 26.7118 39.3439 24.9862 41.1152Z" fill="white"/>
<path d="M50.8892 15.6893L32.3659 1.72844C29.3185 -0.576147 25.1695 -0.576147 22.1221 1.72844L3.59884 15.6893C0.533042 17.9939 -0.733663 22.0698 0.422894 25.8028L7.49074 48.3916C8.66566 52.1247 12.0068 54.6388 15.7886 54.6388H38.6811C42.4628 54.6388 45.804 52.1247 46.9789 48.3916L54.0468 25.8028C55.24 22.0698 53.955 17.9939 50.8892 15.6893ZM27.96 24.4315C28.4373 23.7078 29.0247 23.0602 29.704 22.5269C30.0344 22.2602 30.3832 22.0317 30.7504 21.8031C31.1175 21.5936 31.5031 21.4032 31.8886 21.2508C32.2741 21.0984 32.6963 20.9841 33.1002 20.8699C33.5225 20.7746 33.9447 20.7175 34.3669 20.6794C34.8075 20.6604 35.2298 20.6604 35.6703 20.6985C36.1109 20.7365 36.5332 20.8127 36.9554 20.908C37.3776 21.0222 37.7999 21.1556 38.2038 21.327C38.6076 21.4984 39.0115 21.7079 39.397 21.9365L39.4521 21.9555C40.3149 22.4698 40.6087 23.6125 40.113 24.5077C39.6173 25.4029 38.5158 25.7076 37.653 25.1934C37.5796 25.1362 37.4878 25.0791 37.4144 25.0219C36.5699 24.3172 35.5051 23.8792 34.3853 23.7839C34.1099 23.7649 33.8162 23.7649 33.5408 23.7839C33.2471 23.803 32.9717 23.8411 32.678 23.9173C32.4026 23.9934 32.1089 24.0696 31.8335 24.1839C31.5581 24.2982 31.2828 24.4315 31.0258 24.5839C29.9977 25.1934 29.1165 26.1647 28.5658 27.3265C28.4373 27.6122 28.3088 27.917 28.217 28.2407C28.1252 28.5455 28.0518 28.8693 27.9967 29.1931C27.9416 29.4978 27.9233 29.8025 27.9233 30.1073C28.4006 29.3835 28.988 28.736 29.6673 28.2027C29.9977 27.936 30.3465 27.7075 30.7137 27.4789C31.0808 27.2694 31.4664 27.0789 31.8519 26.9266C32.2374 26.7742 32.6596 26.6409 33.0635 26.5456C33.4857 26.4504 33.908 26.3933 34.3302 26.3552C34.7708 26.3361 35.193 26.3361 35.6336 26.3742C36.0742 26.4123 36.4965 26.4885 36.9187 26.5837C37.3409 26.698 37.7632 26.8313 38.167 27.0027C38.5709 27.1742 38.9748 27.3837 39.3603 27.6122L39.4154 27.6503C40.2782 28.1646 40.5719 29.3073 40.0763 30.2025C39.5806 31.0977 38.4791 31.4024 37.6163 30.8882C37.5429 30.831 37.4511 30.7739 37.3776 30.7358C36.5332 30.0311 35.4684 29.593 34.3486 29.4978C34.0732 29.4788 33.7795 29.4788 33.5041 29.4978C33.2104 29.5168 32.935 29.5549 32.6413 29.6311C32.3659 29.7073 32.0722 29.7835 31.7968 29.8978C31.5214 30.012 31.2461 30.1454 30.989 30.2977C30.1079 30.812 29.3368 31.5929 28.7861 32.5261C32.3475 32.6976 37.3042 33.5927 39.0299 37.0591C40.1681 39.3447 39.9478 41.2493 39.2869 42.6968C37.9467 45.6109 34.6423 46.9441 31.705 45.8775C30.3649 45.4014 28.8228 44.2967 27.1706 42.4873C25.5183 44.2967 23.9763 45.3823 22.6361 45.8775C19.6988 46.9441 16.3944 45.6299 15.0543 42.6968C14.3934 41.2493 14.1731 39.3447 15.3113 37.0591C17.0553 33.5737 22.012 32.6785 25.5551 32.5261C25.0043 31.5929 24.2333 30.812 23.3521 30.2977C23.0951 30.1454 22.8197 30.012 22.5627 29.8978C22.2873 29.7835 22.012 29.7073 21.7182 29.6311C21.4429 29.5549 21.1491 29.5168 20.8554 29.4978C20.5617 29.4788 20.2863 29.4788 19.9926 29.4978C18.8727 29.593 17.7896 30.0311 16.9635 30.7358C16.1925 31.3834 15.0543 31.25 14.4301 30.4501C13.8059 29.6502 13.9344 28.4693 14.7055 27.8217C14.7789 27.7646 14.8523 27.7075 14.9258 27.6694L14.9808 27.6313C15.3663 27.4027 15.7702 27.1932 16.1741 27.0218C16.578 26.8504 17.0002 26.7171 17.4224 26.6028C17.8447 26.5075 18.2853 26.4314 18.7075 26.3933C19.1481 26.3552 19.5703 26.3552 20.0109 26.3742C20.4332 26.4123 20.8738 26.4695 21.2776 26.5647C21.6999 26.6599 22.1037 26.7742 22.4893 26.9456C22.8931 27.098 23.2787 27.2884 23.6458 27.4979C24.013 27.7075 24.3618 27.9551 24.6922 28.2217C25.3715 28.774 25.9589 29.4216 26.4362 30.1263C26.4362 29.8216 26.4179 29.5168 26.3628 29.2121C26.3077 28.8883 26.2343 28.5645 26.1425 28.2598C26.0507 27.9551 25.9222 27.6503 25.7937 27.3456C25.243 26.1838 24.3618 25.2124 23.3337 24.6029C23.0767 24.4506 22.8014 24.3172 22.5443 24.203C22.269 24.0887 21.9936 24.0125 21.6999 23.9363C21.4245 23.8601 21.1308 23.822 20.837 23.803C20.5433 23.7839 20.2679 23.7839 19.9742 23.803C18.8544 23.8792 17.7713 24.3363 16.9451 25.041C16.1741 25.6886 15.0359 25.5552 14.4117 24.7553C13.7876 23.9554 13.9161 22.7745 14.6871 22.1269C14.7605 22.0698 14.834 22.0126 14.9074 21.9746L14.9625 21.9365C15.348 21.7079 15.7519 21.4984 16.1557 21.327C16.5596 21.1556 16.9819 21.0222 17.4041 20.908C17.8263 20.7937 18.2669 20.7365 18.6892 20.6985C19.1297 20.6604 19.552 20.6604 19.9926 20.6794C20.4148 20.7175 20.8554 20.7746 21.2593 20.8699C21.6815 20.9651 22.0854 21.0794 22.4709 21.2508C22.8748 21.4032 23.2603 21.5936 23.6275 21.8031C23.9946 22.0126 24.3434 22.2602 24.6739 22.5269C25.3531 23.0792 25.9406 23.7268 26.4179 24.4315V24.2601C26.4179 23.9173 26.3995 23.5935 26.3445 23.2697C26.2894 22.9459 26.216 22.6221 26.1242 22.3174C26.0324 22.0126 25.9039 21.7079 25.7754 21.4222C25.2246 20.2604 24.3434 19.289 23.3154 18.6796C23.0584 18.5272 22.783 18.3939 22.526 18.2796C22.2506 18.1653 21.9752 18.0891 21.6815 18.0129C21.4061 17.9368 21.1124 17.8987 20.8187 17.8796C20.525 17.8606 20.2496 17.8606 19.9559 17.8796C18.836 17.9748 17.7529 18.4129 16.9268 19.1176C16.1557 19.7652 15.0175 19.6319 14.3934 18.8319C13.7692 18.032 13.8977 16.8511 14.6687 16.2036C14.7422 16.1464 14.8156 16.0893 14.889 16.0512L14.9441 16.0131C15.3296 15.7845 15.7335 15.575 16.1374 15.4036C16.5413 15.2322 16.9635 15.0989 17.3857 14.9846C17.808 14.8894 18.2486 14.8132 18.6708 14.7751C19.1114 14.737 19.5336 14.737 19.9742 14.756C20.3965 14.7941 20.837 14.8513 21.2409 14.9465C21.6632 15.0417 22.067 15.156 22.4526 15.3274C22.8564 15.4798 23.2419 15.6703 23.6091 15.8798C23.9763 16.0893 24.3251 16.3369 24.6555 16.6035C25.7203 17.4606 26.5464 18.5653 27.0971 19.8033C27.6295 18.5653 28.474 17.4606 29.5388 16.6035C29.8692 16.3369 30.218 16.1083 30.5852 15.8798C30.9523 15.6703 31.3378 15.4798 31.7234 15.3274C32.1089 15.1751 32.5311 15.0417 32.935 14.9465C33.3572 14.8513 33.7795 14.7941 34.2017 14.756C34.6423 14.737 35.0645 14.737 35.5051 14.7751C35.9457 14.8132 36.3679 14.8894 36.7902 14.9846C37.2124 15.0989 37.6347 15.2322 38.0385 15.4036C38.4424 15.575 38.8463 15.7845 39.2318 16.0131L39.2869 16.0512C40.1497 16.5654 40.4434 17.7082 39.9478 18.6034C39.4521 19.4985 38.3506 19.8033 37.4878 19.289C37.4144 19.2319 37.3226 19.1748 37.2491 19.1367C36.4047 18.432 35.3399 17.9939 34.2201 17.8987C33.9447 17.8796 33.651 17.8796 33.3756 17.8987C33.0819 17.9177 32.8065 17.9558 32.5128 18.032C32.2374 18.1082 31.9437 18.1844 31.6683 18.2986C31.3929 18.4129 31.1175 18.5462 30.8605 18.6986C29.8325 19.3081 28.9513 20.2794 28.4006 21.4413C28.2721 21.7269 28.1435 22.0317 28.0518 22.3364C27.96 22.6602 27.8865 22.965 27.8315 23.2887C27.7764 23.6125 27.758 23.9554 27.758 24.2791C27.9416 24.3172 27.9416 24.3744 27.96 24.4315Z" fill="white"/>
<path d="M69.0637 47.6476H58.0305L55.4971 54.4661H51.8989L62.0876 26.7349H65.0433L75.2137 54.4661H71.6155L69.0637 47.6476ZM59.0953 44.5431H67.9989L63.5379 32.4297L59.0953 44.5431Z" fill="white"/>
<path d="M72.6802 34.6396H76.0764L81.8225 49.8385L87.5502 34.6396H90.9464L82.6853 56.219C81.9326 58.2188 81.1249 59.6283 80.2988 60.4663C79.4543 61.3043 78.4262 61.7233 77.1779 61.7233C77.0127 61.7233 76.8475 61.7233 76.7189 61.7043C76.5721 61.6852 76.4252 61.6662 76.2967 61.6471C76.1498 61.6091 76.0213 61.571 75.9112 61.5138V58.8664C76.8842 58.8664 77.6001 58.6378 78.0774 58.1998C78.5548 57.7617 78.9586 57.0951 79.3074 56.219L80.1519 54.0287L72.6802 34.6396Z" fill="white"/>
<path d="M98.7671 34.4102C99.8135 34.4102 100.786 34.6006 101.686 34.9625C102.586 35.3244 103.338 35.8196 103.981 36.4291C104.623 37.0385 105.119 37.7623 105.468 38.5813C105.817 39.4003 106 40.2954 106 41.2287V54.4658H103.687L102.843 52.2755C102.42 52.7517 101.925 53.1516 101.392 53.4945C100.915 53.8182 100.309 54.1039 99.6116 54.3325C98.914 54.561 98.0695 54.6753 97.0965 54.6753C96.1235 54.6753 95.2607 54.523 94.4897 54.2182C93.7186 53.9135 93.0577 53.4754 92.507 52.9421C91.9563 52.3898 91.5157 51.7613 91.2036 51.0565C90.8915 50.3518 90.7446 49.5709 90.7446 48.752C90.7446 47.7996 90.9282 46.9426 91.2954 46.1807C91.6625 45.3998 92.3051 44.7332 93.2046 44.1618C94.1042 43.5904 95.3525 43.1524 96.9313 42.8476C98.5101 42.5429 100.474 42.3905 102.861 42.3905V41.2858C102.861 40.2764 102.475 39.4003 101.723 38.6575C100.97 37.9147 99.9971 37.5337 98.8038 37.5337C97.6105 37.5337 96.7294 37.7813 96.1786 38.2956C95.6095 38.8098 95.224 39.4955 95.0037 40.3907H91.6075C91.7176 39.5717 91.9563 38.8098 92.3418 38.0861C92.7089 37.3623 93.2046 36.7338 93.8104 36.1815C94.4162 35.6291 95.1322 35.2101 95.9583 34.9054C96.7294 34.5816 97.684 34.4102 98.7671 34.4102ZM97.0598 51.5898C97.9043 51.5898 98.6753 51.4565 99.3913 51.1708C100.107 50.8851 100.713 50.5423 101.209 50.1042C101.704 49.6662 102.09 49.171 102.384 48.6377C102.659 48.0853 102.806 47.533 102.806 46.9807V45.4379C100.878 45.4379 99.3362 45.5141 98.1796 45.6855C97.0231 45.8569 96.1235 46.0855 95.481 46.3902C94.8385 46.695 94.4162 47.0568 94.2143 47.4949C94.0124 47.9139 93.9022 48.4091 93.9022 48.9615C93.9022 49.6281 94.1959 50.2376 94.765 50.7899C95.3341 51.3232 96.1052 51.5898 97.0598 51.5898Z" fill="white"/>
</svg>
