<svg width="644" height="182" viewBox="0 0 644 182" fill="none" xmlns="http://www.w3.org/2000/svg">
<circle cx="10" cy="119" r="10" fill="#0180FA"/>
<rect x="462" y="20" width="153" height="129" fill="white"/>
<mask id="mask0_310:434" style="mask-type:alpha" maskUnits="userSpaceOnUse" x="509" y="53" width="74" height="71">
<path d="M540.122 55.2705C543.627 52.7241 548.373 52.7241 551.878 55.2705L578.164 74.3688C581.669 76.9153 583.136 81.4289 581.797 85.5491L571.757 116.451C570.418 120.571 566.578 123.361 562.246 123.361H529.754C525.422 123.361 521.582 120.571 520.243 116.451L510.203 85.5491C508.864 81.4289 510.331 76.9153 513.836 74.3688L540.122 55.2705Z" fill="#3BD6B2"/>
</mask>
<g mask="url(#mask0_310:434)">
<path d="M540.122 55.2705C543.627 52.7241 548.373 52.7241 551.878 55.2705L578.164 74.3688C581.669 76.9153 583.136 81.4289 581.797 85.5491L571.757 116.451C570.418 120.571 566.578 123.361 562.246 123.361H529.754C525.422 123.361 521.582 120.571 520.243 116.451L510.203 85.5491C508.864 81.4289 510.331 76.9153 513.836 74.3688L540.122 55.2705Z" fill="#3BD6B2"/>
<g opacity="0.1">
<mask id="mask1_310:434" style="mask-type:alpha" maskUnits="userSpaceOnUse" x="496" y="49" width="96" height="74">
<rect x="496.857" y="49" width="95.1429" height="74" rx="16" fill="#FFA92B"/>
</mask>
<g mask="url(#mask1_310:434)">
<rect width="11.7073" height="157.496" transform="matrix(0.462998 -0.886359 0.345181 0.938536 476.856 85.5305)" fill="white"/>
<rect width="11.7073" height="157.496" transform="matrix(0.462998 -0.886359 0.345181 0.938536 484.761 70.3967)" fill="white"/>
<rect width="11.7073" height="157.496" transform="matrix(0.462998 -0.886359 0.345181 0.938536 492.666 55.263)" fill="white"/>
<rect width="11.7073" height="157.496" transform="matrix(0.462998 -0.886359 0.345181 0.938536 500.571 40.1299)" fill="white"/>
<rect width="11.7073" height="157.496" transform="matrix(0.462998 -0.886359 0.345181 0.938536 508.476 24.9963)" fill="white"/>
<rect width="11.7073" height="157.496" transform="matrix(0.462998 -0.886359 0.345181 0.938536 524.214 -5.13116)" fill="white"/>
<rect width="11.7073" height="157.496" transform="matrix(0.462998 -0.886359 0.345181 0.938536 539.95 -35.2563)" fill="white"/>
<rect width="11.7073" height="157.496" transform="matrix(0.462998 -0.886359 0.345181 0.938536 516.381 9.86273)" fill="white"/>
<rect width="11.7073" height="157.496" transform="matrix(0.462998 -0.886359 0.345181 0.938536 532.119 -20.2648)" fill="white"/>
<rect width="11.7073" height="157.496" transform="matrix(0.462998 -0.886359 0.345181 0.938536 547.855 -50.3899)" fill="white"/>
</g>
</g>
<path d="M548.926 103.363L538.027 85.672C537.784 85.2758 537.807 84.7686 538.094 84.3976C539.388 82.7168 540.701 81.2152 541.804 80.2133C541.804 80.2133 542.687 79.3502 543.248 78.9767C544.013 78.3736 545.012 78.0834 545.984 78.0834C547.074 78.0834 548.105 78.4013 548.929 79.0348C549.076 79.1786 549.725 79.7263 550.254 80.2436C553.551 83.2619 558.997 91.1408 560.647 95.2847C560.914 95.8879 561.469 97.498 561.5 98.3333C561.5 99.1384 561.324 99.9157 560.939 100.663C560.41 101.581 559.588 102.301 558.614 102.704C557.937 102.964 555.907 103.366 555.847 103.366C554.398 103.625 552.362 103.82 549.986 103.916C549.559 103.933 549.146 103.719 548.926 103.363Z" fill="white"/>
<path opacity="0.4" d="M543.056 102.18C543.539 102.96 542.921 103.941 541.994 103.904C539.819 103.81 537.902 103.649 536.476 103.452C536.445 103.422 533.915 103.02 533.06 102.558C531.471 101.753 530.5 100.174 530.5 98.4751V98.3338C530.528 97.2385 531.5 94.9092 531.559 94.9092C532.048 93.7357 532.874 92.2038 533.869 90.5558C534.318 89.8139 535.422 89.7962 535.879 90.5382L543.056 102.18Z" fill="white"/>
</g>
</svg>
