<svg width="282" height="155" viewBox="0 0 282 155" fill="none" xmlns="http://www.w3.org/2000/svg">
<path d="M273.745 102.15C273.769 102.794 273.761 103.436 273.721 104.076C273.449 104.055 273.209 104.256 273.185 104.529C273.142 105.002 273.08 105.474 273 105.944C272.92 106.414 272.822 106.88 272.705 107.34C272.638 107.606 272.797 107.876 273.061 107.946C272.887 108.563 272.681 109.171 272.445 109.771C272.192 109.668 271.902 109.786 271.795 110.038C271.428 110.904 270.993 111.751 270.492 112.581C270.35 112.816 270.424 113.12 270.656 113.264C270.315 113.801 269.947 114.33 269.553 114.85C269.336 114.683 269.025 114.72 268.855 114.936C268.274 115.671 267.639 116.389 266.949 117.092C266.757 117.288 266.759 117.603 266.953 117.796C266.503 118.241 266.031 118.678 265.539 119.108C265.36 118.9 265.046 118.876 264.836 119.054C264.121 119.661 263.364 120.254 262.564 120.834C262.341 120.995 262.291 121.306 262.451 121.529C261.935 121.894 261.403 122.252 260.856 122.604C260.708 122.372 260.401 122.303 260.168 122.45C259.37 122.952 258.538 123.442 257.674 123.92C257.433 124.053 257.345 124.356 257.477 124.597C256.92 124.899 256.35 125.196 255.767 125.487C255.645 125.241 255.346 125.139 255.099 125.261C254.245 125.68 253.363 126.088 252.456 126.486C252.203 126.597 252.088 126.891 252.198 127.143C251.609 127.397 251.01 127.646 250.4 127.89C250.299 127.634 250.009 127.508 249.752 127.609C248.87 127.957 247.966 128.295 247.04 128.624C246.78 128.716 246.644 129.001 246.736 129.261C246.137 129.47 245.529 129.676 244.912 129.877C244.827 129.615 244.546 129.471 244.284 129.555C243.369 129.849 242.435 130.135 241.483 130.412C241.219 130.489 241.066 130.765 241.143 131.03C240.531 131.205 239.913 131.377 239.287 131.544C239.216 131.278 238.943 131.119 238.677 131.19C237.751 131.434 236.81 131.67 235.854 131.899C235.586 131.963 235.42 132.232 235.484 132.501C234.857 132.648 234.225 132.792 233.586 132.932C233.528 132.663 233.262 132.492 232.992 132.55C232.056 132.753 231.107 132.949 230.145 133.137C229.874 133.19 229.697 133.452 229.75 133.723C229.123 133.844 228.49 133.961 227.852 134.076C227.804 133.804 227.544 133.623 227.273 133.671C226.321 133.839 225.358 134.001 224.383 134.155C224.11 134.198 223.924 134.454 223.967 134.726C223.34 134.824 222.707 134.919 222.071 135.011C222.032 134.738 221.779 134.548 221.506 134.586C220.545 134.723 219.573 134.852 218.591 134.976C218.318 135.01 218.124 135.26 218.158 135.534C217.529 135.611 216.896 135.686 216.259 135.758C216.228 135.484 215.981 135.286 215.707 135.317C214.743 135.423 213.77 135.524 212.789 135.619C212.514 135.645 212.313 135.889 212.339 136.164C211.705 136.224 211.067 136.281 210.425 136.335C210.402 136.06 210.161 135.856 209.886 135.879C208.921 135.959 207.947 136.033 206.966 136.102C206.691 136.121 206.483 136.36 206.502 136.635C205.865 136.678 205.223 136.719 204.579 136.757C204.563 136.482 204.327 136.272 204.051 136.287C203.085 136.343 202.111 136.393 201.13 136.438C200.854 136.45 200.641 136.684 200.653 136.959C200.013 136.987 199.371 137.013 198.725 137.036C198.716 136.76 198.484 136.544 198.209 136.553C197.241 136.586 196.266 136.614 195.286 136.636C195.01 136.642 194.791 136.871 194.797 137.147C194.156 137.16 193.513 137.171 192.867 137.18C192.864 136.904 192.637 136.683 192.361 136.687C191.392 136.698 190.417 136.705 189.437 136.706C189.161 136.707 188.937 136.93 188.937 137.206C188.297 137.206 187.654 137.204 187.009 137.199C187.011 136.923 186.789 136.698 186.513 136.695C185.542 136.687 184.567 136.673 183.586 136.655C183.31 136.649 183.082 136.869 183.077 137.145C182.437 137.132 181.795 137.116 181.151 137.099C181.158 136.823 180.941 136.593 180.665 136.585C179.693 136.558 178.717 136.525 177.736 136.488C177.46 136.477 177.228 136.692 177.218 136.968C176.579 136.942 175.938 136.915 175.296 136.886C175.309 136.61 175.096 136.376 174.82 136.363C173.847 136.317 172.87 136.266 171.889 136.21C171.614 136.195 171.378 136.405 171.362 136.681C170.725 136.644 170.086 136.604 169.446 136.563C169.464 136.288 169.255 136.05 168.98 136.032C168.006 135.968 167.028 135.9 166.047 135.826C165.772 135.806 165.532 136.012 165.512 136.287C164.876 136.239 164.24 136.189 163.601 136.137C163.624 135.862 163.42 135.62 163.145 135.597C162.174 135.516 161.2 135.431 160.222 135.341C159.947 135.316 159.704 135.518 159.678 135.793C159.042 135.733 158.404 135.672 157.764 135.608C157.791 135.334 157.591 135.089 157.317 135.061C156.349 134.964 155.378 134.862 154.404 134.756C154.13 134.726 153.883 134.924 153.853 135.199C153.215 135.128 152.576 135.056 151.935 134.982C151.967 134.707 151.771 134.459 151.497 134.427C150.532 134.314 149.565 134.196 148.595 134.074C148.322 134.04 148.072 134.234 148.037 134.508C147.398 134.427 146.757 134.343 146.116 134.258C146.153 133.985 145.96 133.733 145.687 133.697C144.726 133.568 143.762 133.435 142.797 133.298C142.523 133.259 142.27 133.449 142.231 133.722C141.593 133.63 140.953 133.537 140.313 133.442C140.354 133.169 140.166 132.914 139.893 132.873C138.934 132.729 137.972 132.581 137.009 132.428C136.736 132.385 136.48 132.571 136.437 132.843C135.802 132.742 135.166 132.638 134.529 132.533C134.575 132.261 134.391 132.004 134.118 131.958C133.636 131.878 133.152 131.797 132.669 131.714C132.185 131.632 131.702 131.548 131.22 131.464C130.948 131.416 130.689 131.598 130.642 131.87C130.006 131.758 129.372 131.645 128.739 131.53C128.789 131.259 128.609 130.998 128.337 130.949C127.378 130.773 126.422 130.595 125.469 130.413C125.198 130.361 124.936 130.539 124.884 130.81C124.248 130.687 123.614 130.564 122.981 130.438C123.035 130.168 122.859 129.905 122.589 129.851C121.632 129.66 120.679 129.466 119.73 129.269C119.459 129.213 119.195 129.386 119.138 129.657C118.505 129.524 117.873 129.39 117.243 129.255C117.301 128.985 117.13 128.719 116.86 128.661C115.905 128.454 114.953 128.245 114.006 128.032C113.737 127.971 113.469 128.14 113.409 128.41C112.78 128.267 112.152 128.124 111.527 127.979C111.59 127.71 111.423 127.441 111.154 127.378C110.2 127.156 109.25 126.93 108.305 126.701C108.037 126.636 107.767 126.8 107.702 127.069C107.077 126.916 106.455 126.763 105.834 126.608C105.901 126.34 105.739 126.069 105.471 126.001C104.519 125.762 103.572 125.52 102.629 125.274C102.362 125.205 102.089 125.365 102.019 125.632C101.4 125.47 100.782 125.306 100.167 125.141C100.239 124.874 100.081 124.6 99.8143 124.528C98.8645 124.272 97.9196 124.013 96.9798 123.75C96.714 123.676 96.4383 123.831 96.3638 124.097C95.7461 123.923 95.1306 123.749 94.5173 123.572C94.5937 123.307 94.4408 123.03 94.1757 122.954C93.2316 122.681 92.293 122.405 91.3598 122.126C91.0953 122.047 90.8169 122.197 90.7376 122.461C90.1219 122.276 89.5085 122.09 88.8976 121.902C88.9789 121.638 88.8311 121.359 88.5674 121.277C87.6296 120.987 86.6976 120.694 85.7715 120.398C85.5086 120.314 85.2274 120.459 85.1432 120.722C84.5299 120.525 83.9192 120.326 83.3112 120.127C83.3975 119.864 83.2552 119.582 82.9931 119.495C82.0618 119.188 81.1367 118.877 80.2182 118.563C79.957 118.474 79.6729 118.613 79.5835 118.874C78.9733 118.665 78.366 118.454 77.7615 118.242C77.8531 117.982 77.7166 117.696 77.4563 117.604C76.5316 117.278 75.6139 116.949 74.7031 116.616C74.4439 116.522 74.157 116.655 74.0622 116.914C73.4559 116.692 72.8528 116.468 72.2528 116.243C72.3499 115.985 72.2194 115.697 71.9612 115.599C71.0435 115.253 70.1333 114.904 69.2309 114.552C68.9737 114.452 68.684 114.579 68.5835 114.836C67.9822 114.6 67.3843 114.363 66.7899 114.125C66.8928 113.869 66.7689 113.578 66.513 113.474C65.6025 113.107 64.7004 112.737 63.8067 112.364C63.552 112.258 63.2594 112.378 63.1529 112.633C62.5578 112.383 61.9665 112.132 61.3791 111.88C61.4882 111.626 61.3714 111.332 61.1181 111.223C60.2153 110.833 59.3217 110.44 58.4376 110.045C58.1857 109.932 57.8901 110.045 57.7772 110.296C57.1901 110.032 56.6071 109.767 56.0284 109.5C56.1441 109.25 56.0352 108.953 55.7848 108.837C54.8903 108.422 54.0062 108.005 53.1325 107.584C52.8838 107.465 52.5853 107.569 52.4654 107.818C51.8884 107.539 51.3159 107.258 50.7481 106.977C50.871 106.73 50.7706 106.43 50.5237 106.306C49.6386 105.865 48.765 105.42 47.9033 104.973C47.6584 104.846 47.3568 104.941 47.2295 105.186C46.6594 104.888 46.0945 104.589 45.5348 104.289C45.6655 104.046 45.5748 103.743 45.332 103.612C44.4636 103.143 43.6081 102.672 42.7658 102.198C42.5254 102.062 42.2209 102.147 42.0852 102.388C41.5214 102.068 40.9635 101.747 40.4116 101.425C40.5509 101.187 40.4712 100.881 40.2334 100.742C39.3882 100.245 38.5574 99.7458 37.7415 99.2443C37.5065 99.0998 37.199 99.173 37.0542 99.4077C36.4983 99.0633 35.9494 98.7178 35.4074 98.3712C35.5564 98.1392 35.4895 97.8303 35.2576 97.6809C34.4314 97.1481 33.622 96.613 32.8297 96.0758C32.6014 95.921 32.291 95.9803 32.1358 96.2081C31.6012 95.8424 31.0745 95.4757 30.5557 95.1079C30.7156 94.8834 30.6637 94.5718 30.4394 94.4113C29.6334 93.8346 28.8473 93.2557 28.0814 92.6749C27.8617 92.5083 27.5487 92.551 27.3817 92.7702C26.867 92.3758 26.3616 91.9806 25.8655 91.5844C26.038 91.3696 26.0042 91.0555 25.7897 90.8823C25.0256 90.2653 24.2846 89.6465 23.5671 89.0261C23.3586 88.8458 23.0436 88.8683 22.8628 89.0761C22.3687 88.6435 21.8858 88.2101 21.4144 87.7759C21.6017 87.5741 21.5904 87.2586 21.389 87.0705C20.6646 86.3942 19.9686 85.7165 19.3016 85.0378C19.1085 84.8413 18.793 84.8381 18.5959 85.0302C18.1429 84.5619 17.7035 84.0931 17.2778 83.6237C17.4825 83.4398 17.5001 83.1249 17.3169 82.9192C16.6599 82.1817 16.0377 81.4436 15.4511 80.7054C15.2799 80.4898 14.9668 80.4534 14.7507 80.6233C14.3509 80.1092 13.9682 79.5949 13.6025 79.0804C13.8275 78.9226 13.883 78.6125 13.7264 78.3863C13.164 77.5746 12.6457 76.7635 12.1725 75.9536C12.0337 75.7163 11.7296 75.6356 11.4916 75.7724C11.1699 75.2032 10.87 74.6342 10.5922 74.0657C10.8395 73.9474 10.9457 73.6515 10.8292 73.4026C10.4117 72.5111 10.0505 71.6222 9.74662 70.7367C9.65753 70.4771 9.37601 70.3382 9.11613 70.4245C8.91656 69.8026 8.74467 69.1819 8.60091 68.5624C8.86807 68.5036 9.0388 68.2406 8.98285 67.9721C8.78519 67.0235 8.6558 66.0797 8.5961 65.1415C8.5787 64.8681 8.3446 64.66 8.07174 64.6739C8.04728 64.0296 8.05508 63.3875 8.09567 62.7478C8.36794 62.7688 8.60732 62.5671 8.63198 62.2943C8.67474 61.8211 8.7361 61.3494 8.8163 60.8792C8.8965 60.4091 8.99499 59.9437 9.11152 59.4831C9.17869 59.2176 9.01973 58.9479 8.75589 58.8774C8.92966 58.2605 9.13519 57.652 9.37186 57.0523C9.62467 57.1559 9.91451 57.0372 10.0216 56.785C10.3889 55.9196 10.8239 55.0721 11.3249 54.2427C11.4666 54.0079 11.3928 53.7032 11.1602 53.5591C11.5012 53.0224 11.8692 52.4937 12.2636 51.9731C12.4802 52.1408 12.7918 52.103 12.962 51.8876C13.5422 51.1529 14.1777 50.434 14.8671 49.7313C15.0595 49.5352 15.0575 49.2208 14.8633 49.0272C15.3139 48.5829 15.7855 48.1456 16.2777 47.7152C16.4568 47.9231 16.7705 47.9479 16.9801 47.7699C17.6951 47.1628 18.4529 46.5694 19.2526 45.9899C19.4754 45.8285 19.5258 45.5176 19.3659 45.2941C19.8814 44.9299 20.413 44.5715 20.9606 44.219C21.1082 44.451 21.4157 44.5204 21.6487 44.3739C22.4468 43.8718 23.2785 43.3817 24.1429 42.9037C24.3839 42.7704 24.4716 42.4675 24.3395 42.2261C24.8967 41.9244 25.4667 41.6277 26.0494 41.3361C26.1716 41.5827 26.4703 41.6843 26.7176 41.563C27.572 41.1437 28.4533 40.7351 29.3609 40.3372C29.6133 40.2265 29.7285 39.9326 29.6187 39.6801C30.2074 39.4267 30.8066 39.1779 31.4163 38.9335C31.5179 39.1895 31.8076 39.3152 32.0641 39.2142C32.9467 38.8668 33.851 38.5286 34.7765 38.1998C35.0362 38.1075 35.1722 37.8224 35.0807 37.5626C35.68 37.3533 36.2879 37.1479 36.9042 36.9465C36.9891 37.2086 37.2703 37.3527 37.5328 37.2684C38.4479 36.9743 39.3815 36.6888 40.3331 36.4119C40.5978 36.3348 40.7502 36.058 40.6738 35.7932C41.2851 35.6182 41.9036 35.4469 42.5292 35.279C42.6001 35.5454 42.8733 35.7043 43.14 35.6339C44.0656 35.3897 45.0067 35.1532 45.9628 34.9245C46.231 34.8604 46.3966 34.5911 46.3329 34.3229C46.9591 34.1756 47.5916 34.0316 48.2302 33.891C48.289 34.1604 48.5549 34.3314 48.8245 34.273C49.7605 34.0703 50.7097 33.8748 51.6718 33.6864C51.9425 33.6334 52.1191 33.3712 52.0666 33.1005C52.6939 32.9798 53.3266 32.8621 53.9646 32.7475C54.0129 33.019 54.2721 33.2002 54.5438 33.1522C55.4956 32.9842 56.459 32.823 57.4338 32.6685C57.7063 32.6253 57.8922 32.3696 57.8495 32.0971C58.4769 31.9996 59.109 31.9048 59.7456 31.8128C59.7847 32.0859 60.0375 32.2758 60.3107 32.2371C61.272 32.1009 62.2435 31.9711 63.2251 31.8477C63.4989 31.8133 63.693 31.5636 63.6589 31.2899C64.2879 31.2125 64.921 31.1377 65.558 31.0655C65.5887 31.3397 65.8357 31.5372 66.11 31.5068C67.0735 31.4001 68.0461 31.2994 69.0274 31.2047C69.3021 31.1782 69.5033 30.9342 69.4772 30.6596C70.1116 30.5999 70.7496 30.5427 71.3911 30.4881C71.4142 30.763 71.6556 30.9673 71.9306 30.9445C72.8959 30.8644 73.8692 30.7901 74.8502 30.7215C75.1255 30.7023 75.3331 30.4637 75.3141 30.1884C75.952 30.1452 76.5931 30.1044 77.2373 30.0661C77.2534 30.3415 77.4896 30.5519 77.7651 30.5361C78.7319 30.4805 79.7057 30.4304 80.6864 30.3858C80.9621 30.3733 81.1755 30.1398 81.1632 29.8641C81.803 29.8363 82.4457 29.8108 83.0913 29.7877C83.1009 30.0635 83.3321 30.2793 83.6079 30.27C84.576 30.2372 85.5504 30.2096 86.531 30.1873C86.8069 30.181 87.0255 29.9524 87.0195 29.6765C87.6601 29.6631 88.3034 29.652 88.9491 29.6432C88.9526 29.9191 89.1791 30.14 89.455 30.1367C90.4244 30.1252 91.3995 30.1187 92.38 30.1173C92.656 30.117 92.8795 29.893 92.8793 29.6171C93.5199 29.6173 94.1628 29.6197 94.808 29.6243C94.8058 29.9003 95.0276 30.1259 95.3036 30.1283C96.2742 30.1369 97.2499 30.1504 98.2306 30.1689C98.5066 30.174 98.7345 29.9547 98.7399 29.6788C99.3798 29.6919 100.022 29.7071 100.666 29.7245C100.658 30.0003 100.875 30.2302 101.151 30.2381C102.123 30.2659 103.099 30.2985 104.08 30.3359C104.356 30.3464 104.588 30.1314 104.599 29.8557C105.238 29.881 105.878 29.9085 106.52 29.9379C106.508 30.2136 106.721 30.4476 106.996 30.4607C107.969 30.5069 108.946 30.5577 109.927 30.6133C110.203 30.6289 110.439 30.4183 110.455 30.1428C111.092 30.1799 111.73 30.219 112.371 30.26C112.353 30.5354 112.562 30.7733 112.837 30.7913C113.811 30.8553 114.788 30.9238 115.769 30.997C116.044 31.0176 116.284 30.8112 116.305 30.536C116.94 30.5843 117.577 30.6346 118.215 30.6868C118.192 30.9619 118.397 31.2033 118.672 31.2263C119.643 31.3072 120.617 31.3926 121.594 31.4825C121.869 31.5078 122.113 31.3055 122.138 31.0307C122.775 31.0903 123.413 31.1517 124.052 31.215C124.025 31.4897 124.225 31.7346 124.5 31.7622C125.468 31.8595 126.438 31.9612 127.412 32.0673C127.687 32.0972 127.933 31.8991 127.963 31.6248C128.601 31.6952 129.241 31.7676 129.881 31.8419C129.849 32.116 130.046 32.3642 130.32 32.3964C131.284 32.5096 132.251 32.6272 133.221 32.749C133.495 32.7835 133.745 32.5894 133.779 32.3156C134.419 32.3969 135.059 32.48 135.7 32.565C135.664 32.8386 135.856 33.09 136.13 33.1267C137.091 33.2554 138.054 33.3884 139.02 33.5257C139.293 33.5645 139.546 33.3746 139.585 33.1013C140.224 33.193 140.863 33.2865 141.503 33.3818C141.463 33.6548 141.651 33.9092 141.924 33.9503C142.883 34.0945 143.844 34.2429 144.808 34.3955C145.08 34.4387 145.336 34.2528 145.38 33.9802C146.015 34.0817 146.651 34.185 147.287 34.2901C147.242 34.5624 147.426 34.8198 147.698 34.8651C148.181 34.9455 148.664 35.027 149.148 35.1094C149.631 35.1919 150.114 35.2753 150.596 35.3595C150.868 35.407 151.127 35.2251 151.175 34.9533C151.81 35.0651 152.444 35.1785 153.077 35.2932C153.028 35.5648 153.208 35.825 153.479 35.8747C154.439 36.0501 155.395 36.2288 156.348 36.4107C156.619 36.4625 156.881 36.2848 156.933 36.0138C157.568 36.1361 158.202 36.2598 158.835 36.385C158.781 36.6557 158.957 36.9188 159.228 36.9728C160.184 37.1634 161.138 37.3573 162.087 37.5545C162.357 37.6106 162.622 37.4371 162.678 37.1669C163.311 37.2994 163.943 37.4332 164.573 37.5685C164.515 37.8383 164.687 38.1042 164.956 38.1625C165.912 38.369 166.863 38.5787 167.811 38.7917C168.08 38.8522 168.347 38.683 168.408 38.4138C169.037 38.5561 169.664 38.6998 170.289 38.8448C170.227 39.1136 170.394 39.3823 170.663 39.4451C171.617 39.6677 172.566 39.8936 173.511 40.1226C173.78 40.1876 174.05 40.023 174.115 39.7548C174.739 39.907 175.362 40.0606 175.982 40.2156C175.915 40.4833 176.078 40.7547 176.345 40.822C177.297 41.0612 178.245 41.3036 179.187 41.5491C179.455 41.6187 179.728 41.4586 179.797 41.1916C180.417 41.3539 181.034 41.5176 181.65 41.6826C181.578 41.9491 181.736 42.2233 182.002 42.2952C182.952 42.5514 183.897 42.8107 184.837 43.0732C185.103 43.1475 185.378 42.9922 185.453 42.7265C186.07 42.9 186.686 43.0749 187.299 43.2511C187.223 43.5163 187.376 43.7932 187.641 43.8699C188.585 44.1426 189.524 44.4186 190.457 44.6975C190.721 44.7766 191 44.6264 191.079 44.3621C191.695 44.5472 192.308 44.7337 192.919 44.9215C192.838 45.1852 192.985 45.4649 193.249 45.5464C194.187 45.8363 195.119 46.1293 196.045 46.4253C196.308 46.5093 196.589 46.3644 196.673 46.1016C197.287 46.2988 197.897 46.4972 198.505 46.6969C198.419 46.959 198.561 47.2416 198.823 47.3282C199.755 47.6359 200.68 47.9466 201.598 48.2603C201.86 48.3495 202.144 48.2101 202.233 47.9491C202.843 48.1586 203.451 48.3695 204.055 48.5816C203.963 48.8419 204.1 49.1273 204.36 49.2191C205.285 49.5455 206.203 49.8748 207.113 50.2071C207.373 50.3017 207.66 50.1683 207.754 49.9092C208.361 50.1316 208.964 50.3553 209.564 50.5803C209.467 50.8386 209.597 51.1268 209.855 51.2242C210.773 51.5703 211.683 51.9193 212.586 52.2713C212.843 52.3715 213.133 52.2445 213.233 51.9875C213.834 52.2234 214.432 52.4605 215.027 52.6988C214.924 52.9548 215.048 53.2459 215.304 53.3491C216.214 53.7163 217.116 54.0864 218.01 54.4593C218.265 54.5655 218.557 54.4454 218.664 54.1908C219.259 54.4406 219.85 54.6916 220.437 54.9438C220.328 55.1972 220.445 55.4912 220.698 55.6006C221.601 55.9905 222.495 56.3833 223.379 56.7788C223.631 56.8915 223.926 56.7788 224.039 56.5271C224.626 56.7913 225.209 57.0568 225.788 57.3234C225.672 57.5738 225.781 57.8707 226.032 57.9868C226.926 58.4014 227.81 58.8189 228.684 59.239C228.933 59.3586 229.231 59.2541 229.351 59.0056C229.928 59.2849 230.501 59.5653 231.068 59.8469C230.946 60.0939 231.046 60.3938 231.293 60.517C232.178 60.9588 233.051 61.4033 233.913 61.8505C234.158 61.9776 234.46 61.8823 234.587 61.6376C235.157 61.9354 235.722 62.2344 236.282 62.5344C236.151 62.7773 236.242 63.0802 236.484 63.2113C237.353 63.6802 238.208 64.1517 239.051 64.6258C239.291 64.7611 239.596 64.6761 239.731 64.4359C240.295 64.7556 240.853 65.0763 241.405 65.3982C241.266 65.6362 241.345 65.9421 241.583 66.0819C242.428 66.5785 243.259 67.0777 244.075 67.5792C244.31 67.7236 244.618 67.6505 244.762 67.4158C245.318 67.7602 245.867 68.1057 246.409 68.4522C246.26 68.6842 246.327 68.9931 246.559 69.1426C247.385 69.6753 248.195 70.2104 248.987 70.7477C249.215 70.9025 249.526 70.8432 249.681 70.6153C250.215 70.9811 250.742 71.3478 251.261 71.7155C251.101 71.94 251.153 72.2517 251.377 72.4122C252.183 72.9889 252.969 73.5677 253.735 74.1486C253.955 74.3152 254.268 74.2724 254.435 74.0533C254.95 74.4476 255.455 74.8429 255.951 75.2391C255.779 75.4539 255.812 75.7679 256.027 75.9411C256.791 76.5581 257.532 77.177 258.249 77.7973C258.458 77.9776 258.773 77.9551 258.954 77.7473C259.448 78.1799 259.931 78.6134 260.402 79.0475C260.215 79.2494 260.226 79.5649 260.428 79.753C261.152 80.4293 261.848 81.107 262.515 81.7857C262.708 81.9822 263.024 81.9854 263.221 81.7932C263.674 82.2615 264.113 82.7304 264.539 83.1998C264.334 83.3837 264.316 83.6986 264.5 83.9042C265.157 84.6417 265.779 85.3799 266.365 86.1181C266.537 86.3336 266.85 86.3701 267.066 86.2002C267.466 86.7142 267.848 87.2286 268.214 87.7431C267.989 87.9009 267.933 88.2109 268.09 88.4371C268.653 89.2489 269.171 90.06 269.644 90.8698C269.783 91.1072 270.087 91.1879 270.325 91.051C270.647 91.6203 270.947 92.1892 271.224 92.7578C270.977 92.8761 270.871 93.172 270.987 93.4208C271.405 94.3123 271.766 95.2012 272.07 96.0867C272.159 96.3463 272.44 96.4853 272.7 96.3989C272.9 97.0208 273.072 97.6416 273.216 98.2611C272.948 98.3198 272.778 98.5829 272.834 98.8514C273.031 99.7999 273.161 100.744 273.22 101.682C273.238 101.955 273.472 102.163 273.745 102.15Z" stroke="#0080FA" stroke-linecap="round" stroke-linejoin="round" stroke-dasharray="3 3 3 3"/>
<path d="M6.75812 84.0888C6.64071 83.4548 6.55554 82.8183 6.50318 82.1795C6.77564 82.1609 6.98329 81.9266 6.96821 81.6531C6.94207 81.1787 6.93454 80.7031 6.94588 80.2263C6.95721 79.7495 6.98734 79.2748 7.036 78.8021C7.06406 78.5297 6.86777 78.2858 6.59651 78.2543C6.67917 77.6187 6.79453 76.9869 6.94194 76.3592C7.20708 76.4252 7.47669 76.2658 7.54616 76.0007C7.78445 75.0914 8.09223 74.1898 8.4679 73.2966C8.57422 73.0438 8.45705 72.753 8.20609 72.6441C8.46584 72.0637 8.75345 71.4873 9.06844 70.9152C9.30698 71.0497 9.6099 70.9672 9.74706 70.7295C10.2149 69.9186 10.7397 69.1153 11.3202 68.3203C11.4822 68.0984 11.4347 67.7876 11.2146 67.6241C11.5962 67.1193 11.9995 66.6183 12.4243 66.1213C12.6316 66.3011 12.9456 66.2802 13.1272 66.0738C13.7468 65.3696 14.4109 64.6728 15.1183 63.9838C15.3154 63.7918 15.3203 63.4769 15.1297 63.2789C15.5871 62.844 16.0613 62.4124 16.5521 61.9844C16.7317 62.1926 17.046 62.2168 17.2553 62.0381C17.9725 61.4258 18.7245 60.8206 19.5106 60.2226C19.7298 60.0558 19.7728 59.7433 19.6072 59.5237C20.1149 59.1445 20.636 58.7685 21.1703 58.3956C21.3269 58.622 21.6372 58.6793 21.8643 58.5234C22.649 57.985 23.4619 57.4532 24.3025 56.9281C24.5362 56.7821 24.6076 56.4746 24.4625 56.2406C25.0083 55.9048 25.5652 55.5718 26.1331 55.2419C26.2708 55.4805 26.5756 55.5629 26.8147 55.4259C27.6378 54.9544 28.4836 54.489 29.3518 54.0297C29.5955 53.9008 29.6888 53.5991 29.5606 53.3552C30.1234 53.0614 30.6952 52.7703 31.2758 52.4818C31.3978 52.7289 31.6969 52.8308 31.9444 52.7093C32.8073 52.2859 33.6898 51.8684 34.5913 51.4567C34.8421 51.3422 34.9528 51.0462 34.8389 50.7952C35.4185 50.5337 36.0057 50.2746 36.6005 50.0181C36.7091 50.2714 37.0025 50.3891 37.2561 50.2809C38.1367 49.9053 39.0336 49.5352 39.9466 49.1706C40.2027 49.0683 40.3276 48.7779 40.2258 48.5217C40.8241 48.2853 41.4291 48.0514 42.0406 47.8198C42.1378 48.0779 42.4256 48.2086 42.684 48.1119C43.5808 47.7759 44.4917 47.4451 45.4164 47.1196C45.6766 47.0279 45.8134 46.7429 45.7223 46.4827C46.3256 46.2725 46.9346 46.0645 47.5493 45.8588C47.6364 46.1204 47.919 46.2622 48.1809 46.1754C49.0984 45.8715 50.0283 45.5726 50.9705 45.2787C51.2339 45.1966 51.3809 44.9166 51.2992 44.6532C51.9059 44.4659 52.5177 44.2807 53.1343 44.0976C53.2124 44.3621 53.4901 44.5134 53.7548 44.4356C54.6863 44.1618 55.6288 43.8928 56.5822 43.6287C56.8481 43.555 57.004 43.2799 56.9307 43.014C57.5419 42.8464 58.1575 42.6808 58.7774 42.5172C58.8474 42.784 59.1204 42.9438 59.3874 42.874C60.3254 42.629 61.2731 42.3887 62.2304 42.153C62.4984 42.0871 62.6622 41.8165 62.5966 41.5486C63.2157 41.3977 63.8387 41.2489 64.4655 41.102C64.5282 41.3706 64.7966 41.5379 65.0654 41.4755C66.009 41.2567 66.9613 41.0423 67.922 40.8326C68.1916 40.7737 68.3625 40.5075 68.304 40.2379C68.9289 40.1029 69.5573 39.9698 70.1892 39.8386C70.245 40.1088 70.5091 40.2828 70.7795 40.2273C71.728 40.0325 72.6843 39.842 73.6483 39.656C73.9193 39.6037 74.0966 39.3418 74.0446 39.0708C74.6737 38.9508 75.3059 38.8326 75.9413 38.7163C75.9907 38.9877 76.2507 39.1679 76.5223 39.1187C77.4754 38.9462 78.4356 38.7779 79.4026 38.614C79.6747 38.5679 79.858 38.31 79.8121 38.0379C80.4441 37.932 81.0789 37.828 81.7166 37.7258C81.76 37.9983 82.016 38.1841 82.2886 38.1409C83.2461 37.9893 84.21 37.8418 85.18 37.6986C85.4531 37.6583 85.6418 37.4044 85.6017 37.1314C86.2356 37.0389 86.8721 36.9483 87.5112 36.8595C87.5489 37.1329 87.801 37.324 88.0744 37.2865C89.0361 37.1546 90.0035 37.0268 90.9765 36.9032C91.2503 36.8684 91.4441 36.6183 91.4096 36.3445C92.0446 36.265 92.682 36.1872 93.3217 36.1111C93.3541 36.3852 93.6023 36.5813 93.8765 36.5492C94.8421 36.436 95.8129 36.327 96.7889 36.2221C97.0633 36.1926 97.2619 35.9463 97.2326 35.6719C97.8682 35.6046 98.5059 35.5391 99.1458 35.4753C99.1729 35.75 99.4175 35.9507 99.6921 35.9238C100.661 35.8287 101.636 35.7377 102.614 35.6508C102.889 35.6263 103.092 35.3838 103.068 35.1089C103.704 35.0534 104.342 34.9997 104.981 34.9477C105.003 35.2228 105.244 35.4279 105.519 35.406C106.492 35.3284 107.469 35.2548 108.45 35.1853C108.726 35.1658 108.933 34.9269 108.914 34.6516C109.549 34.6075 110.187 34.5651 110.826 34.5245C110.843 34.7999 111.08 35.0092 111.356 34.9921C112.328 34.9317 113.304 34.8753 114.285 34.8228C114.56 34.8081 114.772 34.5728 114.757 34.2972C115.396 34.264 116.036 34.2324 116.678 34.2026C116.691 34.4783 116.924 34.6917 117.2 34.6793C118.172 34.6355 119.147 34.5957 120.126 34.5598C120.402 34.5497 120.617 34.318 120.607 34.0422C121.249 34.0196 121.892 33.9987 122.536 33.9796C122.544 34.2554 122.774 34.4727 123.05 34.4648C124.021 34.4373 124.995 34.4137 125.972 34.394C126.248 34.3884 126.467 34.1603 126.462 33.8844C127.106 33.8723 127.752 33.8619 128.399 33.8532C128.402 34.1292 128.629 34.3502 128.905 34.3469C129.874 34.3352 130.847 34.3274 131.822 34.3235C132.098 34.3224 132.321 34.0978 132.32 33.8219C132.965 33.8202 133.612 33.8202 134.259 33.8219C134.258 34.0979 134.481 34.3225 134.757 34.3236C135.727 34.3275 136.7 34.3352 137.675 34.3469C137.951 34.3502 138.178 34.1292 138.181 33.8532C138.824 33.8617 139.468 33.872 140.113 33.8839C140.108 34.1598 140.327 34.3879 140.603 34.3934C141.092 34.4031 141.582 34.4138 142.073 34.4254C142.563 34.4371 143.053 34.4497 143.542 34.4633C143.818 34.4709 144.048 34.2535 144.056 33.9776C144.701 33.9964 145.345 34.0168 145.987 34.0388C145.978 34.3146 146.193 34.5461 146.469 34.556C147.444 34.5907 148.416 34.6292 149.385 34.6714C149.661 34.6834 149.894 34.4697 149.906 34.194C150.553 34.223 151.199 34.2537 151.843 34.2861C151.829 34.5617 152.041 34.7966 152.316 34.8108C153.291 34.8611 154.262 34.9151 155.23 34.9728C155.505 34.9892 155.742 34.7793 155.758 34.5038C156.404 34.5432 157.049 34.5842 157.692 34.6269C157.673 34.9023 157.881 35.1406 158.157 35.1593C159.132 35.2254 160.104 35.2953 161.072 35.3689C161.347 35.3898 161.587 35.1838 161.608 34.9086C162.251 34.9584 162.893 35.0098 163.532 35.0629C163.509 35.3379 163.714 35.5796 163.989 35.6028C164.965 35.6851 165.937 35.7712 166.905 35.8611C167.18 35.8866 167.424 35.6846 167.449 35.4098C168.089 35.4701 168.727 35.532 169.364 35.5956C169.336 35.8702 169.536 36.1153 169.811 36.1431C170.787 36.2421 171.76 36.3448 172.728 36.4514C173.002 36.4816 173.249 36.2837 173.28 36.0094C173.916 36.0804 174.551 36.153 175.184 36.2273C175.151 36.5013 175.347 36.7498 175.621 36.7824C176.598 36.8985 177.571 37.0184 178.538 37.1422C178.812 37.1772 179.063 36.9837 179.098 36.71C179.734 36.7923 180.368 36.8763 181.001 36.9619C180.963 37.2353 181.155 37.4873 181.428 37.5247C182.402 37.6581 183.371 37.7953 184.334 37.9363C184.607 37.9763 184.861 37.7874 184.901 37.5144C185.537 37.6085 186.171 37.7043 186.803 37.8017C186.761 38.0744 186.947 38.3298 187.22 38.3723C188.19 38.5235 189.155 38.6785 190.114 38.8374C190.386 38.8825 190.643 38.6985 190.689 38.4263C191.324 38.5326 191.957 38.6406 192.588 38.7503C192.54 39.0221 192.722 39.2811 192.994 39.3288C193.96 39.4986 194.92 39.6722 195.874 39.8497C196.145 39.9001 196.406 39.7212 196.457 39.45C197.091 39.569 197.723 39.6898 198.351 39.8123C198.298 40.0831 198.475 40.3456 198.746 40.3989C199.708 40.588 200.664 40.7811 201.613 40.9782C201.883 41.0342 202.148 40.8608 202.204 40.5906C202.836 40.723 203.465 40.8571 204.091 40.993C204.033 41.2626 204.203 41.5288 204.473 41.5879C205.431 41.7976 206.382 42.0113 207.326 42.2289C207.595 42.2909 207.863 42.1233 207.926 41.8545C208.555 42.0009 209.181 42.149 209.803 42.2988C209.738 42.567 209.903 42.8371 210.171 42.9022C211.125 43.1338 212.072 43.3695 213.01 43.6092C213.277 43.6775 213.549 43.5162 213.618 43.249C214.243 43.41 214.864 43.5728 215.482 43.7374C215.411 44.0039 215.569 44.2779 215.835 44.3495C216.785 44.6047 217.726 44.8641 218.658 45.1275C218.924 45.2026 219.2 45.0483 219.275 44.7829C219.894 44.9594 220.509 45.1378 221.121 45.3179C221.042 45.5824 221.193 45.8604 221.458 45.939C222.403 46.2199 223.338 46.505 224.263 46.7943C224.527 46.8767 224.807 46.7301 224.889 46.4669C225.501 46.6598 226.108 46.8544 226.71 47.0509C226.625 47.313 226.767 47.5953 227.029 47.6815C227.969 47.9906 228.898 48.3041 229.815 48.6218C230.076 48.7122 230.36 48.5742 230.451 48.3137C231.058 48.5259 231.661 48.74 232.258 48.9559C232.164 49.2152 232.297 49.5018 232.556 49.5964C233.483 49.9347 234.398 50.2775 235.3 50.6246C235.558 50.7237 235.847 50.5956 235.946 50.3383C236.55 50.573 237.149 50.8097 237.741 51.0484C237.638 51.304 237.761 51.5952 238.017 51.6991C238.925 52.0682 239.819 52.442 240.699 52.8201C240.952 52.9291 241.246 52.8122 241.355 52.559C241.955 52.8194 242.548 53.0818 243.135 53.3463C243.021 53.5974 243.132 53.8934 243.383 54.0078C244.277 54.4153 245.156 54.8277 246.017 55.2447C246.266 55.3648 246.564 55.2612 246.685 55.0133C247.267 55.2979 247.841 55.5846 248.407 55.8733C248.282 56.1186 248.378 56.4195 248.623 56.5459C249.504 56.9999 250.366 57.4589 251.208 57.9228C251.449 58.0559 251.753 57.9683 251.886 57.7273C252.453 58.0431 253.01 58.3611 253.558 58.6813C253.418 58.9188 253.497 59.2246 253.735 59.365C254.58 59.8649 255.403 60.3701 256.202 60.8801C256.435 61.0283 256.743 60.9605 256.892 60.7287C257.444 61.0853 257.984 61.4443 258.513 61.8057C258.357 62.0326 258.414 62.3431 258.641 62.5C259.455 63.0645 260.242 63.6343 261 64.2094C261.22 64.3759 261.532 64.3334 261.699 64.1148C262.215 64.5126 262.718 64.913 263.207 65.3158C263.031 65.5274 263.059 65.8416 263.27 66.0185C264.027 66.6532 264.75 67.2936 265.437 67.9392C265.637 68.1277 265.952 68.1184 266.142 67.919C266.612 68.3699 267.065 68.8234 267.501 69.2796C267.301 69.4683 267.291 69.7831 267.479 69.9843C268.153 70.7061 268.783 71.4337 269.368 72.1666C269.54 72.3814 269.853 72.4172 270.068 72.2474C270.469 72.7641 270.848 73.2837 271.205 73.806C270.978 73.9589 270.915 74.267 271.067 74.4964C271.609 75.3181 272.095 76.1454 272.523 76.9776C272.649 77.2216 272.948 77.3184 273.193 77.1954C273.48 77.7818 273.74 78.3712 273.972 78.9633C273.716 79.0601 273.585 79.3451 273.679 79.6027C274.012 80.5127 274.277 81.4279 274.471 82.3475C274.528 82.6156 274.79 82.7876 275.058 82.7343C275.175 83.3683 275.26 84.0048 275.313 84.6437C275.04 84.6623 274.833 84.8965 274.848 85.17C274.874 85.6444 274.881 86.12 274.87 86.5968C274.859 87.0736 274.829 87.5484 274.78 88.021C274.752 88.2935 274.948 88.5373 275.22 88.5688C275.137 89.2045 275.021 89.8362 274.874 90.4639C274.609 90.3979 274.339 90.5573 274.27 90.8224C274.032 91.7318 273.724 92.6333 273.348 93.5265C273.242 93.7793 273.359 94.0702 273.61 94.179C273.35 94.7595 273.063 95.3358 272.748 95.908C272.509 95.7734 272.206 95.8559 272.069 96.0937C271.601 96.9045 271.076 97.7078 270.496 98.5029C270.334 98.7248 270.381 99.0355 270.601 99.199C270.22 99.7038 269.817 100.205 269.392 100.702C269.184 100.522 268.87 100.543 268.689 100.749C268.069 101.453 267.405 102.15 266.698 102.839C266.501 103.031 266.496 103.346 266.686 103.544C266.229 103.979 265.755 104.411 265.264 104.839C265.084 104.631 264.77 104.606 264.561 104.785C263.844 105.397 263.092 106.003 262.305 106.601C262.086 106.767 262.043 107.08 262.209 107.299C261.701 107.679 261.18 108.055 260.646 108.428C260.489 108.201 260.179 108.144 259.952 108.3C259.167 108.838 258.354 109.37 257.514 109.895C257.28 110.041 257.208 110.349 257.354 110.583C256.808 110.918 256.251 111.251 255.683 111.581C255.545 111.343 255.24 111.26 255.001 111.397C254.178 111.869 253.332 112.334 252.464 112.793C252.221 112.922 252.127 113.224 252.255 113.468C251.693 113.762 251.121 114.053 250.54 114.341C250.418 114.094 250.119 113.992 249.872 114.114C249.009 114.537 248.126 114.955 247.225 115.366C246.974 115.481 246.863 115.777 246.977 116.028C246.398 116.289 245.81 116.549 245.216 116.805C245.107 116.552 244.814 116.434 244.56 116.542C243.679 116.918 242.782 117.288 241.869 117.653C241.613 117.755 241.488 118.045 241.59 118.301C240.992 118.538 240.387 118.772 239.775 119.003C239.678 118.745 239.39 118.615 239.132 118.711C238.235 119.047 237.324 119.378 236.4 119.704C236.139 119.795 236.003 120.08 236.094 120.34C235.49 120.551 234.881 120.759 234.267 120.964C234.18 120.703 233.897 120.561 233.635 120.648C232.718 120.952 231.788 121.251 230.846 121.544C230.582 121.627 230.435 121.907 230.517 122.17C229.91 122.357 229.298 122.542 228.682 122.726C228.604 122.461 228.326 122.31 228.061 122.388C227.13 122.661 226.187 122.93 225.234 123.194C224.968 123.268 224.812 123.543 224.885 123.809C224.274 123.977 223.659 124.142 223.039 124.306C222.969 124.039 222.696 123.879 222.429 123.949C221.491 124.194 220.543 124.434 219.586 124.67C219.318 124.736 219.154 125.007 219.219 125.275C218.6 125.425 217.977 125.574 217.35 125.721C217.288 125.452 217.019 125.285 216.751 125.348C215.807 125.566 214.855 125.781 213.894 125.991C213.624 126.049 213.453 126.316 213.512 126.585C212.887 126.72 212.259 126.853 211.627 126.985C211.571 126.714 211.307 126.54 211.037 126.596C210.088 126.791 209.132 126.981 208.168 127.167C207.897 127.219 207.719 127.481 207.771 127.752C207.142 127.872 206.51 127.991 205.875 128.107C205.825 127.835 205.565 127.655 205.294 127.704C204.341 127.877 203.38 128.045 202.413 128.209C202.141 128.255 201.958 128.513 202.004 128.785C201.372 128.891 200.737 128.995 200.099 129.097C200.056 128.825 199.8 128.639 199.527 128.682C198.57 128.834 197.606 128.981 196.636 129.125C196.363 129.165 196.174 129.419 196.214 129.692C195.58 129.784 194.944 129.875 194.305 129.964C194.267 129.69 194.015 129.499 193.742 129.537C192.78 129.669 191.813 129.796 190.839 129.92C190.566 129.955 190.372 130.205 190.406 130.479C189.771 130.558 189.134 130.636 188.494 130.712C188.462 130.438 188.214 130.242 187.94 130.274C186.974 130.387 186.003 130.496 185.027 130.601C184.753 130.631 184.554 130.877 184.583 131.151C183.948 131.219 183.31 131.284 182.67 131.348C182.643 131.073 182.399 130.872 182.124 130.899C181.155 130.994 180.18 131.085 179.202 131.172C178.927 131.197 178.724 131.439 178.748 131.714C178.112 131.77 177.474 131.823 176.835 131.875C176.813 131.6 176.572 131.395 176.297 131.417C175.324 131.495 174.347 131.568 173.366 131.638C173.09 131.657 172.883 131.896 172.902 132.172C172.267 132.216 171.629 132.258 170.99 132.299C170.973 132.023 170.736 131.814 170.46 131.831C169.488 131.891 168.512 131.948 167.531 132C167.256 132.015 167.044 132.25 167.059 132.526C166.42 132.559 165.78 132.591 165.138 132.621C165.125 132.345 164.892 132.131 164.616 132.144C163.644 132.188 162.669 132.227 161.69 132.263C161.414 132.273 161.199 132.505 161.209 132.781C160.567 132.804 159.924 132.824 159.28 132.844C159.272 132.568 159.042 132.35 158.766 132.358C157.795 132.386 156.821 132.409 155.844 132.429C155.568 132.435 155.349 132.663 155.354 132.939C154.71 132.951 154.064 132.961 153.417 132.97C153.414 132.694 153.187 132.473 152.911 132.476C151.942 132.488 150.969 132.496 149.994 132.5C149.718 132.501 149.495 132.725 149.496 133.001C148.851 133.003 148.204 133.003 147.557 133.001C147.558 132.725 147.335 132.501 147.059 132.5C146.089 132.496 145.116 132.488 144.141 132.476C143.865 132.473 143.639 132.694 143.635 132.97C142.992 132.961 142.348 132.951 141.703 132.939C141.708 132.663 141.489 132.435 141.213 132.43C140.724 132.42 140.234 132.409 139.743 132.398C139.253 132.386 138.763 132.373 138.274 132.36C137.998 132.352 137.768 132.57 137.76 132.846C137.115 132.827 136.471 132.806 135.829 132.784C135.838 132.509 135.623 132.277 135.347 132.267C134.372 132.232 133.4 132.194 132.431 132.152C132.155 132.14 131.922 132.353 131.91 132.629C131.263 132.6 130.617 132.569 129.973 132.537C129.987 132.261 129.775 132.027 129.5 132.012C128.526 131.962 127.554 131.908 126.586 131.85C126.311 131.834 126.074 132.044 126.058 132.319C125.412 132.28 124.767 132.239 124.124 132.196C124.143 131.921 123.935 131.683 123.659 131.664C122.684 131.598 121.712 131.528 120.744 131.454C120.469 131.433 120.229 131.639 120.208 131.915C119.565 131.865 118.923 131.813 118.284 131.76C118.307 131.485 118.102 131.244 117.827 131.22C116.851 131.138 115.879 131.052 114.911 130.962C114.636 130.937 114.392 131.139 114.367 131.413C113.727 131.353 113.089 131.291 112.452 131.228C112.48 130.953 112.28 130.708 112.005 130.68C111.029 130.581 110.056 130.478 109.088 130.372C108.814 130.342 108.567 130.539 108.536 130.814C107.9 130.743 107.265 130.67 106.632 130.596C106.665 130.322 106.469 130.073 106.195 130.041C105.218 129.925 104.245 129.805 103.278 129.681C103.004 129.646 102.753 129.839 102.718 130.113C102.082 130.031 101.448 129.947 100.815 129.861C100.853 129.588 100.661 129.336 100.388 129.298C99.4142 129.165 98.4454 129.028 97.4817 128.887C97.2086 128.847 96.9548 129.036 96.9146 129.309C96.2786 129.215 95.6447 129.119 95.013 129.021C95.0553 128.749 94.8686 128.493 94.5959 128.451C93.626 128.3 92.6614 128.145 91.7023 127.986C91.43 127.941 91.1727 128.125 91.1274 128.397C90.492 128.291 89.859 128.183 89.2285 128.073C89.276 127.801 89.0943 127.542 88.8225 127.494C87.8564 127.325 86.8962 127.151 85.9419 126.973C85.6705 126.923 85.4096 127.102 85.359 127.373C84.7249 127.254 84.0934 127.133 83.4646 127.011C83.5176 126.74 83.3412 126.477 83.0703 126.424C82.1082 126.235 81.1524 126.042 80.2032 125.845C79.933 125.789 79.6685 125.962 79.6121 126.233C78.98 126.1 78.3509 125.966 77.7246 125.83C77.7834 125.561 77.6126 125.294 77.343 125.235C76.3848 125.026 75.4338 124.812 74.4899 124.594C74.2209 124.532 73.9527 124.7 73.8904 124.969C73.2613 124.822 72.6354 124.674 72.0127 124.524C72.0775 124.256 71.9129 123.986 71.6447 123.921C70.6906 123.689 69.7444 123.454 68.8062 123.214C68.5388 123.146 68.2667 123.307 68.1982 123.574C67.5732 123.413 66.9518 123.25 66.3341 123.086C66.4054 122.819 66.2473 122.545 65.9808 122.474C65.0311 122.218 64.0901 121.959 63.158 121.696C62.8925 121.621 62.6164 121.775 62.541 122.04C61.9218 121.864 61.3066 121.685 60.6954 121.505C60.7737 121.241 60.6229 120.963 60.3584 120.884C59.4134 120.603 58.4781 120.318 57.5528 120.029C57.2894 119.946 57.0092 120.093 56.9266 120.356C56.3152 120.163 55.7082 119.969 55.1056 119.772C55.1915 119.51 55.0488 119.228 54.7866 119.142C53.8469 118.833 52.9182 118.519 52.0008 118.201C51.7401 118.111 51.4556 118.249 51.3649 118.509C50.7577 118.297 50.1555 118.083 49.5583 117.867C49.6525 117.608 49.5189 117.321 49.2598 117.227C48.3326 116.888 47.4179 116.546 46.5159 116.199C46.2584 116.099 45.9694 116.228 45.87 116.485C45.2658 116.25 44.6673 116.013 44.0747 115.775C44.1781 115.519 44.055 115.228 43.7994 115.124C42.8913 114.755 41.9971 114.381 41.1172 114.003C40.8638 113.894 40.5701 114.011 40.4608 114.264C39.8609 114.004 39.2677 113.741 38.6813 113.477C38.7952 113.226 38.6843 112.93 38.4333 112.815C37.5387 112.408 36.6603 111.995 35.7986 111.578C35.5504 111.458 35.2518 111.562 35.1312 111.81C34.5493 111.525 33.9751 111.239 33.4086 110.95C33.5343 110.705 33.4378 110.404 33.1927 110.277C32.3117 109.823 31.4501 109.364 30.6083 108.9C30.3668 108.767 30.0633 108.855 29.9297 109.096C29.3634 108.78 28.8061 108.462 28.2579 108.142C28.3975 107.904 28.3187 107.599 28.0814 107.458C27.2361 106.958 26.4133 106.453 25.6136 105.943C25.3812 105.795 25.0728 105.863 24.924 106.094C24.3724 105.738 23.8319 105.379 23.3027 105.017C23.4588 104.791 23.402 104.48 23.1755 104.323C22.3609 103.759 21.5742 103.189 20.816 102.614C20.5965 102.447 20.2838 102.49 20.1166 102.708C19.6006 102.311 19.098 101.91 18.6089 101.507C18.7848 101.296 18.7567 100.982 18.5457 100.805C17.7888 100.17 17.0665 99.5296 16.3792 98.884C16.1786 98.6955 15.8635 98.7047 15.6743 98.9041C15.2043 98.4533 14.7512 97.9997 14.315 97.5435C14.5147 97.3548 14.5248 97.04 14.3371 96.8389C13.6632 96.117 13.033 95.3894 12.4476 94.6566C12.276 94.4418 11.9634 94.406 11.7477 94.5758C11.347 94.0591 10.968 93.5395 10.6108 93.0171C10.8385 92.8643 10.9006 92.5561 10.7494 92.3268C10.2073 91.505 9.72133 90.6777 9.29253 89.8455C9.1668 89.6015 8.86817 89.5047 8.62351 89.6278C8.33607 89.0413 8.07617 88.4519 7.8443 87.8598C8.10015 87.763 8.23102 87.478 8.13683 87.2205C7.804 86.3105 7.53942 85.3953 7.34465 84.4756C7.28786 84.2076 7.02613 84.0355 6.75812 84.0888Z" stroke="#0080FA" stroke-linecap="round" stroke-linejoin="round" stroke-dasharray="3 3 3 3"/>
<circle cx="115" cy="6" r="6" fill="#0080FA"/>
</svg>
